<svg width="88" height="88" viewBox="0 0 88 88" fill="none" xmlns="http://www.w3.org/2000/svg">
<g clip-path="url(#clip0_295_11936)">
<path d="M44 77.3119C63.352 77.3119 79.04 61.624 79.04 42.2719C79.04 22.9199 63.352 7.23193 44 7.23193C24.6479 7.23193 8.95996 22.9199 8.95996 42.2719C8.95996 61.624 24.6479 77.3119 44 77.3119Z" fill="white"/>
<path d="M43.9999 77.456C24.5839 77.456 8.81592 61.664 8.81592 42.272C8.81592 22.88 24.5839 7.06396 43.9999 7.06396C63.4159 7.06396 79.1839 22.856 79.1839 42.248C79.1839 61.64 63.4159 77.456 43.9999 77.456ZM43.9999 7.39997C24.7759 7.39997 9.15192 23.048 9.15192 42.248C9.15192 61.448 24.7759 77.12 43.9999 77.12C63.2239 77.12 78.8479 61.472 78.8479 42.272C78.8479 23.072 63.2239 7.39997 43.9999 7.39997Z" fill="#D1D3D4"/>
</g>
<g clip-path="url(#clip1_295_11936)">
<path d="M72.7998 69.4637C72.7998 69.4637 69.1518 60.8717 68.2158 57.5117C67.2798 54.1517 67.4958 50.4797 67.4958 50.4797L64.9038 37.2797C64.9038 37.2797 46.6878 27.9197 41.3118 24.6797C35.9358 21.4397 29.4318 16.3997 27.5358 17.5037C25.6398 18.6077 25.9758 21.0797 28.2078 23.5517C29.1198 24.5597 30.3678 25.6157 31.1358 26.7197C31.7598 27.6317 32.5278 30.4637 31.7838 31.4717C30.8958 32.6717 28.5198 28.9277 27.2718 30.1037C26.6238 30.7277 26.4798 32.9597 27.7998 34.8797C28.3038 35.6237 29.5038 36.7517 30.1998 37.3277C32.0238 38.8877 32.4078 40.1117 33.8478 42.0077C35.3358 43.9517 34.2078 41.0477 34.0878 43.3037C33.9438 46.0157 33.5598 49.2797 34.3278 51.9437C35.5518 56.1917 42.7758 61.4717 45.9198 64.1597C49.0638 66.8477 47.4798 76.0397 47.4798 76.0397L72.7998 69.4637Z" fill="white"/>
<path d="M47.4559 76.2079C47.4079 76.2079 47.3839 76.1839 47.3599 76.1599C47.3119 76.1119 47.2879 76.0639 47.3119 76.0159C47.3359 75.9199 48.8479 66.8959 45.7999 64.3039C45.2959 63.8719 44.6479 63.3439 43.9759 62.7919C40.4719 59.9359 35.1919 55.6159 34.1599 52.0159C33.4879 49.7359 33.6799 47.0239 33.8239 44.6239C33.8479 44.1919 33.8719 43.7599 33.8959 43.3279C33.8959 43.0639 33.9439 42.7999 34.0159 42.5599C33.9199 42.4639 33.7999 42.3199 33.6799 42.1519C33.1999 41.5039 32.8399 40.9519 32.4799 40.4239C31.8079 39.4159 31.2559 38.5279 30.0559 37.4959C29.8639 37.3519 28.2799 35.9599 27.6319 34.9999C26.2399 32.9839 26.4079 30.7039 27.1279 30.0079C27.8479 29.3119 28.9039 30.0559 29.8159 30.7279C30.1759 31.0159 30.5599 31.2559 30.9679 31.4719C31.3759 31.6399 31.5439 31.5199 31.6399 31.3759C32.3119 30.4639 31.6159 27.7279 30.9919 26.8159C30.4399 26.0719 29.8159 25.3759 29.1199 24.7279C28.7359 24.3679 28.3999 24.0079 28.0879 23.6479C26.6479 22.0639 25.9759 20.4799 26.1679 19.1839C26.2879 18.4159 26.7679 17.7439 27.4399 17.3599C28.9519 16.4719 32.7919 18.9679 37.2319 21.8719C38.6239 22.7839 40.0639 23.7199 41.4079 24.5359C46.7119 27.7519 64.8079 37.0399 64.9759 37.1359C65.0239 37.1599 65.0479 37.2079 65.0719 37.2559L67.6639 50.4559C67.6639 50.4799 67.6639 50.4799 67.6639 50.5039C67.6639 50.5279 67.4479 54.1759 68.3839 57.4639C69.3199 60.7519 72.9439 69.3199 72.9679 69.3919C72.9919 69.4399 72.9919 69.4879 72.9679 69.5359C72.9439 69.5839 72.8959 69.6079 72.8479 69.6319L47.5039 76.2319L47.4559 76.2079ZM34.3039 42.7999C34.2559 42.9679 34.2559 43.1359 34.2319 43.3279C34.2079 43.7599 34.1839 44.1919 34.1599 44.6239C34.0159 46.9999 33.8479 49.6879 34.4719 51.8959C35.4799 55.3999 40.7119 59.6719 44.1679 62.5039C44.8399 63.0559 45.4879 63.5839 45.9919 64.0159C48.8959 66.5119 47.8879 74.2399 47.6479 75.7999L72.5359 69.3199C72.0079 68.0719 68.8879 60.5839 67.9999 57.5119C67.0879 54.2959 67.2559 50.7679 67.2799 50.4559L64.7119 37.3519C63.4399 36.7039 46.3279 27.8959 41.1919 24.7759C39.8479 23.9599 38.4079 23.0239 37.0159 22.1119C33.0319 19.5199 28.9279 16.8319 27.5839 17.5999C26.9839 17.9359 26.5519 18.5359 26.4559 19.2079C26.2879 20.3839 26.9359 21.8959 28.3039 23.3839C28.6159 23.7199 28.9759 24.0799 29.3359 24.4399C30.0319 25.0879 30.6799 25.8079 31.2559 26.5759C31.8799 27.4879 32.7199 30.4159 31.9039 31.5199C31.6639 31.8559 31.3039 31.9039 30.8239 31.7119C30.3919 31.4959 29.9839 31.2319 29.5999 30.9439C28.7599 30.3199 27.8959 29.6719 27.3439 30.1759C26.7919 30.6799 26.5759 32.8399 27.8959 34.7359C28.3999 35.4799 29.6239 36.6079 30.2719 37.1599C31.4959 38.2159 32.0719 39.1039 32.7439 40.1599C33.0799 40.6879 33.4399 41.2399 33.9199 41.8639C34.0399 42.0079 34.1359 42.1279 34.2079 42.1999C34.2319 42.1999 34.2559 42.1759 34.3039 42.1759C34.4959 42.1759 34.6639 42.3199 34.7119 42.5119C34.7599 42.6319 34.7119 42.7519 34.6159 42.8239C34.5439 42.9439 34.4479 42.9199 34.3039 42.7999Z" fill="#0B0C11"/>
<path d="M54.9438 58.9518H31.4238C30.4638 58.9518 29.6958 58.1838 29.6958 57.2238V6.94382C29.6958 5.98382 30.4638 5.21582 31.4238 5.21582H54.9438C55.9038 5.21582 56.6718 5.98382 56.6718 6.94382V57.2478C56.6718 58.1838 55.8798 58.9518 54.9438 58.9518Z" fill="white"/>
<path d="M54.9438 59.1199H31.4238C30.3918 59.1199 29.5278 58.2799 29.5278 57.2239V6.94385C29.5278 5.91185 30.3678 5.07185 31.4238 5.04785H54.9438C55.9758 5.04785 56.8398 5.88785 56.8398 6.94385V57.2479C56.8398 58.2799 55.9758 59.1199 54.9438 59.1199ZM31.4238 5.38385C30.5598 5.38385 29.8878 6.07985 29.8878 6.94385V57.2239C29.8878 58.0879 30.5838 58.7839 31.4238 58.7839H54.9438C55.8078 58.7839 56.5038 58.0879 56.5038 57.2239V6.94385C56.5038 6.07985 55.8078 5.38385 54.9438 5.38385H31.4238Z" fill="#0B0C11"/>
<path d="M55.184 10.064H31.064V51.416H55.184V10.064Z" fill="#7E33B8"/>
<path d="M45.2001 57.4637H40.6161C39.9441 57.4637 39.3921 56.9117 39.3921 56.2397V54.4877C39.3921 53.8157 39.9441 53.2637 40.6161 53.2637H45.2001C45.8721 53.2637 46.4241 53.8157 46.4241 54.4877V56.2397C46.4241 56.9357 45.8721 57.4637 45.2001 57.4637ZM40.6161 53.5997C40.1361 53.5997 39.7281 54.0077 39.7281 54.4877V56.2397C39.7281 56.7197 40.1361 57.1277 40.6161 57.1277H45.2001C45.6801 57.1277 46.0881 56.7197 46.0881 56.2397V54.4877C46.0881 54.0077 45.6801 53.5997 45.2001 53.5997H40.6161Z" fill="#D1D3D4"/>
<path d="M48.032 7.78375H41.168C41.072 7.78375 41 7.71176 41 7.61576C41 7.51975 41.072 7.44775 41.168 7.44775H48.032C48.128 7.44775 48.2 7.51975 48.2 7.61576C48.2 7.71176 48.128 7.78375 48.032 7.78375Z" fill="#D1D3D4"/>
<path d="M40.2079 7.71198H39.2959C39.1999 7.71198 39.1279 7.63998 39.1279 7.54398C39.1279 7.44798 39.1999 7.37598 39.2959 7.37598H40.2079C40.3039 7.37598 40.3759 7.44798 40.3759 7.54398C40.3759 7.63998 40.3039 7.71198 40.2079 7.71198Z" fill="#D1D3D4"/>
<path d="M34.5681 32.5039C34.6401 33.4159 34.0881 34.2799 33.1521 34.7599C32.0721 35.2399 30.8721 35.3119 29.7441 34.9279C29.0961 34.7359 28.5201 34.3999 27.9921 33.9679C27.1041 33.2239 26.5761 32.2159 26.6961 31.2799C26.8881 29.7679 28.8801 28.8079 30.8961 29.0479C32.8161 29.2399 34.4481 31.1839 34.5681 32.5039Z" fill="white"/>
<path d="M31.2796 35.3361C30.7516 35.3361 30.1996 35.2641 29.6956 35.0961C29.0236 34.8801 28.4236 34.5441 27.8956 34.0881C26.9356 33.2721 26.4316 32.2161 26.5516 31.2561C26.7436 29.6961 28.7116 28.6161 30.9436 28.8561C32.9116 29.0721 34.6396 31.0161 34.7596 32.4801C34.8316 33.4641 34.2556 34.3761 33.2476 34.8801C32.6236 35.1921 31.9516 35.3361 31.2796 35.3361ZM30.2956 29.1681C28.5196 29.1681 27.0076 30.0801 26.8636 31.3041C26.7676 32.1441 27.2236 33.1041 28.0876 33.8481C28.5916 34.2561 29.1676 34.5921 29.7916 34.7841C30.8716 35.1441 32.0476 35.0961 33.0796 34.6161C33.9676 34.1841 34.4716 33.3681 34.3996 32.5281C34.3036 31.3521 32.7916 29.4321 30.8956 29.2161C30.7036 29.1681 30.4876 29.1681 30.2956 29.1681Z" fill="#0B0C11"/>
<path d="M34.2077 39.296C34.5917 39.848 34.7117 40.544 34.5197 41.192C34.3517 41.576 34.1117 41.912 33.8237 42.176C33.0077 42.944 31.9037 43.472 30.7997 43.328C30.1277 43.184 29.5037 42.896 28.9517 42.488C27.9677 41.816 27.0317 40.976 26.7197 39.848C26.2637 38.216 27.4397 35.792 29.3597 36.056C30.9677 36.224 33.3677 38 34.2077 39.296Z" fill="white"/>
<path d="M31.2079 43.5198C31.0639 43.5198 30.9199 43.5198 30.7759 43.4958C30.0799 43.3518 29.4319 43.0638 28.8559 42.6318C27.5599 41.7438 26.8399 40.8798 26.5519 39.8958C26.2879 38.7918 26.5519 37.6158 27.2959 36.7518C27.7999 36.1278 28.5919 35.7918 29.3839 35.8878C31.0159 36.1038 33.4879 37.9038 34.3519 39.2478C34.7599 39.8478 34.8799 40.6158 34.6879 41.3118C34.5199 41.7198 34.2799 42.0798 33.9439 42.3678C33.1039 43.0878 32.1439 43.5198 31.2079 43.5198ZM29.1199 36.1758C28.5199 36.1758 27.9439 36.4638 27.5599 36.9438C26.8879 37.7358 26.6479 38.7918 26.8879 39.7758C27.1519 40.6878 27.8239 41.5038 29.0479 42.3438C29.5759 42.7518 30.1759 43.0158 30.8239 43.1598C31.7599 43.3038 32.8159 42.8958 33.7039 42.0558C33.9919 41.8158 34.2079 41.5038 34.3759 41.1438C34.5439 40.5438 34.4479 39.8958 34.0879 39.3918C33.2719 38.1438 30.8959 36.3918 29.3599 36.1998C29.2879 36.1758 29.1919 36.1758 29.1199 36.1758Z" fill="#0B0C11"/>
<path d="M33.2718 44.5757C33.6558 44.8397 33.9678 45.1757 34.1838 45.5597C34.6638 46.4477 34.4958 47.6237 33.8958 48.4157C33.2478 49.2077 32.2878 49.7117 31.2798 49.7837C30.0798 49.9277 28.8558 49.5677 27.9438 48.7517C27.0318 47.9357 26.6478 46.6877 26.8878 45.4877C27.6078 42.4157 31.3518 43.1597 33.2718 44.5757Z" fill="white"/>
<path d="M30.7758 49.9762C29.6958 49.9762 28.6398 49.5922 27.8238 48.8722C26.8638 48.0082 26.4558 46.7122 26.7198 45.4402C26.9598 44.4082 27.5598 43.7122 28.4478 43.3762C29.9598 42.8242 32.0718 43.4722 33.3678 44.4082C33.7518 44.6722 34.0878 45.0322 34.3278 45.4402C34.8078 46.4242 34.6878 47.6242 34.0158 48.4882C33.3438 49.3282 32.3598 49.8322 31.2798 49.9282C31.1118 49.9762 30.9438 49.9762 30.7758 49.9762ZM29.6958 43.5202C29.3118 43.5202 28.9278 43.5682 28.5438 43.7122C27.7518 44.0002 27.2478 44.6242 27.0318 45.5362C26.7918 46.6642 27.1758 47.8642 28.0398 48.6322C28.9278 49.4002 30.0798 49.7602 31.2318 49.6162C32.2158 49.5442 33.1038 49.0642 33.7278 48.3202C34.3278 47.5522 34.4478 46.5202 34.0158 45.6562C33.7998 45.2962 33.5118 44.9602 33.1518 44.7202C32.1438 43.9762 30.9438 43.5682 29.6958 43.5202Z" fill="#0B0C11"/>
<path d="M70.9996 62.1441L68.5276 56.9121L44.7676 65.1201L46.3036 70.8561L70.9996 62.1441Z" fill="#7E33B8"/>
<path d="M44.5518 68.6239L70.7598 60.1279L78.2478 73.9279L49.0878 82.7839L44.5518 68.6239Z" fill="#0B0C11"/>
<path d="M49.0877 82.9518C49.0157 82.9518 48.9437 82.9038 48.9197 82.8318L44.3837 68.6718C44.3597 68.5758 44.4077 68.4798 44.4797 68.4558L70.6877 59.9358C70.7597 59.9118 70.8557 59.9358 70.8797 60.0078L78.3437 73.8078C78.3917 73.8798 78.3677 73.9998 78.2717 74.0238C78.2717 74.0238 78.2477 74.0238 78.2477 74.0478L49.0877 82.9038C49.1117 82.9518 49.1117 82.9518 49.0877 82.9518ZM44.7677 68.7438L49.1837 82.5678L77.9837 73.8318L70.6877 60.3198L44.7677 68.7438Z" fill="#0B0C11"/>
<path d="M67.4718 51.2719C67.4718 51.2719 67.3038 36.8719 65.6238 34.0159C63.9438 31.1599 58.6398 19.1359 57.2238 19.0639C55.8078 18.9919 54.3438 23.3119 55.5918 27.1759C56.3118 29.4559 57.3918 31.6159 58.7838 33.5599C58.7838 33.5599 55.1118 36.7519 57.8718 47.3599" fill="white"/>
<path d="M67.472 51.4402C67.376 51.4402 67.304 51.3682 67.304 51.2722C67.304 51.1282 67.112 36.8722 65.48 34.0882C64.952 33.2002 64.112 31.4722 63.104 29.4562C61.232 25.6402 58.088 19.2802 57.176 19.2082C56.84 19.1842 56.552 19.4722 56.36 19.7122C55.328 21.0562 54.776 24.2482 55.712 27.1042C56.432 29.3602 57.512 31.4962 58.88 33.4402C58.952 33.5122 58.928 33.6082 58.856 33.6802C58.832 33.7042 55.304 36.9682 58.016 47.3122C58.04 47.4082 57.992 47.5042 57.896 47.5282C57.8 47.5522 57.704 47.5042 57.68 47.4082C55.16 37.7602 57.92 34.2082 58.52 33.5602C57.176 31.6162 56.12 29.4802 55.4 27.2482C54.44 24.2962 55.016 20.9602 56.096 19.5442C56.432 19.1122 56.816 18.8722 57.176 18.8962C58.184 18.9442 60.392 23.2642 63.368 29.3362C64.352 31.3522 65.216 33.0802 65.72 33.9442C67.4 36.8002 67.592 50.6962 67.592 51.2962C67.64 51.3682 67.568 51.4402 67.472 51.4402Z" fill="#0B0C11"/>
<path d="M69.2477 70.4719C70.2285 70.4719 71.0237 69.6768 71.0237 68.6959C71.0237 67.7151 70.2285 66.9199 69.2477 66.9199C68.2668 66.9199 67.4717 67.7151 67.4717 68.6959C67.4717 69.6768 68.2668 70.4719 69.2477 70.4719Z" fill="white"/>
</g>
<g clip-path="url(#clip2_295_11936)">
<path d="M47.8882 8.91211H16.7362C15.1042 8.91211 13.7842 10.2321 13.7842 11.8641V27.5361C13.7842 29.1681 15.1042 30.4881 16.7362 30.4881H43.1362L47.4802 36.0321V30.5121H47.8642C49.4962 30.5121 50.8162 29.1921 50.8162 27.5601V11.8881C50.8162 10.2321 49.5202 8.91211 47.8882 8.91211Z" fill="white"/>
<path d="M47.5042 36.1762C47.4562 36.1762 47.4082 36.1522 47.3842 36.1042L43.0882 30.6322H16.7362C15.0082 30.6322 13.6162 29.2402 13.6162 27.5122V11.8402C13.6162 10.1122 15.0082 8.72021 16.7362 8.72021H47.8882C49.6162 8.72021 51.0082 10.1122 51.0082 11.8402V27.5122C51.0082 29.2402 49.6162 30.6322 47.8882 30.6322H47.6722V36.0082C47.6722 36.0802 47.6242 36.1522 47.5522 36.1762C47.5282 36.1762 47.5042 36.1762 47.5042 36.1762ZM16.7362 9.08021C15.2002 9.08021 13.9522 10.3282 13.9522 11.8642V27.5362C13.9522 29.0722 15.2002 30.3202 16.7362 30.3202H43.1362C43.1842 30.3202 43.2322 30.3442 43.2802 30.3922L47.3362 35.5282V30.4882C47.3362 30.3922 47.4082 30.3202 47.5042 30.3202H47.8882C49.4242 30.3202 50.6722 29.0722 50.6722 27.5362V11.8642C50.6722 10.3282 49.4242 9.08021 47.8882 9.08021H16.7362Z" fill="#0B0C11"/>
<path d="M28.9764 14.2881H35.6724C36.3444 14.2881 36.8964 14.8401 36.8964 15.5121V18.8961C36.8964 19.5681 36.3444 20.1201 35.6724 20.1201H28.9764C28.3044 20.1201 27.7524 19.5681 27.7524 18.8961V15.5121C27.7524 14.8401 28.2804 14.2881 28.9764 14.2881Z" fill="#7E33B8"/>
<path d="M34.5922 15.6801H30.0322C29.6722 15.6801 29.3602 15.3681 29.3602 15.0081V13.1841C29.3122 11.5521 30.6082 10.1841 32.2402 10.1361C33.8722 10.0881 35.2402 11.3841 35.2882 13.0161C35.2882 13.0641 35.2882 13.1361 35.2882 13.1841V15.0081C35.2642 15.3681 34.9762 15.6801 34.5922 15.6801ZM30.7042 14.3361H33.9202V13.1841C33.9442 12.2961 33.2722 11.5521 32.3602 11.5041C31.4722 11.4801 30.7282 12.1521 30.6802 13.0641C30.6802 13.1121 30.6802 13.1361 30.6802 13.1841L30.7042 14.3361Z" fill="#7E33B8"/>
<path d="M32.3122 17.1684C32.7894 17.1684 33.1762 16.7816 33.1762 16.3044C33.1762 15.8273 32.7894 15.4404 32.3122 15.4404C31.8351 15.4404 31.4482 15.8273 31.4482 16.3044C31.4482 16.7816 31.8351 17.1684 32.3122 17.1684Z" fill="white"/>
<path d="M32.5523 16.4722H32.0723V18.5122H32.5523V16.4722Z" fill="white"/>
<path d="M46.4722 26.9604H18.0082C17.4082 26.9604 16.9282 26.4804 16.9282 25.8804V22.8564C16.9282 22.2564 17.4082 21.7764 18.0082 21.7764H46.4722C47.0722 21.7764 47.5522 22.2564 47.5522 22.8564V25.8804C47.5522 26.4564 47.0722 26.9604 46.4722 26.9604ZM18.0082 22.1124C17.6002 22.1124 17.2642 22.4484 17.2642 22.8564V25.8804C17.2642 26.2884 17.6002 26.6244 18.0082 26.6244H46.4722C46.8802 26.6244 47.2162 26.2884 47.2162 25.8804V22.8564C47.2162 22.4484 46.8802 22.1124 46.4722 22.1124H18.0082Z" fill="#D1D3D4"/>
<path d="M20 24.5121L20.384 25.0161L19.952 25.3041L19.568 24.8001L19.208 25.2801L18.8 24.9921L19.184 24.5121L18.584 24.2961L18.752 23.8161L19.352 24.0321V23.4321H19.856V24.0321L20.456 23.8401L20.624 24.2961L20 24.5121Z" fill="#0B0C11"/>
<path d="M22.7602 24.5121L23.1442 25.0161L22.7122 25.3041L22.3282 24.8001L21.9682 25.2801L21.5602 24.9921L21.9442 24.5121L21.3442 24.3201L21.5122 23.8401L22.1122 24.0561V23.4561H22.6162V24.0561L23.2162 23.8641L23.3842 24.3441L22.7602 24.5121Z" fill="#0B0C11"/>
<path d="M25.5202 24.5121L25.9042 25.0161L25.4722 25.3041L25.0882 24.8001L24.7042 25.2801L24.2962 24.9921L24.6802 24.5121L24.0562 24.2961L24.2242 23.8161L24.8242 24.0321V23.4321H25.3282V24.0321L25.9282 23.8401L26.0962 24.2961L25.5202 24.5121Z" fill="#0B0C11"/>
<path d="M28.2803 24.5121L28.6643 25.0161L28.2323 25.3041L27.8483 24.8001L27.4643 25.2801L27.0563 24.9921L27.4403 24.5121L26.8403 24.3201L27.0083 23.8401L27.6083 24.0561V23.4561H28.1123V24.0561L28.7123 23.8641L28.8563 24.3441L28.2803 24.5121Z" fill="#0B0C11"/>
<path d="M31.064 24.5121L31.448 25.0161L31.016 25.3041L30.632 24.8001L30.272 25.2801L29.84 24.9921L30.224 24.5121L29.624 24.3201L29.792 23.8401L30.392 24.0561V23.4561H30.92V24.0561L31.52 23.8641L31.688 24.3201L31.064 24.5121Z" fill="#0B0C11"/>
</g>
<defs>
<clipPath id="clip0_295_11936">
<rect width="70.368" height="70.392" fill="white" transform="translate(8.81592 7.06396)"/>
</clipPath>
<clipPath id="clip1_295_11936">
<rect width="52.2321" height="77.904" fill="white" transform="translate(26.1357 5.04785)"/>
</clipPath>
<clipPath id="clip2_295_11936">
<rect width="37.392" height="27.456" fill="white" transform="translate(13.6162 8.72021)"/>
</clipPath>
</defs>
</svg>
