<svg width="56" height="56" viewBox="0 0 56 56" fill="none" xmlns="http://www.w3.org/2000/svg">
<rect width="56" height="56" rx="28" fill="#FFF8F7"/>
<path d="M23.792 18H34.1426C36.3407 18 38.1227 19.782 38.1227 21.9801V35.6119C38.1227 36.9308 37.0535 38 35.7346 38H26.1801C24.8612 38 23.792 36.9308 23.792 35.6119V18Z" fill="#D9281C"/>
<path d="M27.2769 24.0017H31.7381M27.2769 26.4707H34.4313M27.2769 29.71H34.4313M27.2769 32.0184H34.4313" stroke="#EFF0F3" stroke-width="1.39303"/>
<path d="M17.877 22.7761C17.877 20.1383 20.0153 18 22.6531 18H23.7919V28.6932H22.6531C20.0153 28.6932 17.877 26.5549 17.877 23.9171V22.7761Z" fill="#C90B04"/>
<g clip-path="url(#clip0_462_7999)">
<path d="M41.2 34.8066C40.94 34.5466 40.52 34.5466 40.26 34.8066L37 38.06L33.74 34.8C33.48 34.54 33.06 34.54 32.8 34.8C32.54 35.06 32.54 35.48 32.8 35.74L36.06 39L32.8 42.26C32.54 42.52 32.54 42.94 32.8 43.2C33.06 43.46 33.48 43.46 33.74 43.2L37 39.94L40.26 43.2C40.52 43.46 40.94 43.46 41.2 43.2C41.46 42.94 41.46 42.52 41.2 42.26L37.94 39L41.2 35.74C41.4533 35.4866 41.4533 35.06 41.2 34.8066Z" fill="#181A1B"/>
<path d="M41.5535 34.4531C41.0983 33.9979 40.3618 33.9978 39.9065 34.453C39.9065 34.453 39.9065 34.4531 39.9064 34.4531L37.0003 37.3532L34.0935 34.4464C33.6383 33.9912 32.9017 33.9912 32.4464 34.4464C31.9912 34.9017 31.9912 35.6383 32.4464 36.0935L35.3529 39L32.4464 41.9064C31.9912 42.3617 31.9912 43.0983 32.4464 43.5535C32.9017 44.0088 33.6383 44.0088 34.0935 43.5535L37 40.6471L39.9064 43.5535C40.3617 44.0088 41.0983 44.0088 41.5535 43.5535C42.0088 43.0983 42.0088 42.3617 41.5535 41.9064L38.6471 39L41.5535 36.0935C42.0021 35.6449 42.0021 34.9017 41.5535 34.4531Z" fill="#D9281C" stroke="#EFF0F3"/>
</g>
<defs>
<clipPath id="clip0_462_7999">
<rect width="16" height="16" fill="white" transform="translate(29 31)"/>
</clipPath>
</defs>
</svg>
