<svg width="21" height="20" viewBox="0 0 21 20" fill="none" xmlns="http://www.w3.org/2000/svg">
<path d="M17.1667 16.2498V16.6665C17.1667 17.1085 16.9911 17.5325 16.6786 17.845C16.366 18.1576 15.9421 18.3332 15.5 18.3332H5.50004C5.05801 18.3332 4.63409 18.1576 4.32153 17.845C4.00897 17.5325 3.83337 17.1085 3.83337 16.6665V3.33317C3.83337 2.89114 4.00897 2.46722 4.32153 2.15466C4.63409 1.8421 5.05801 1.6665 5.50004 1.6665H12.5834L15.5 4.58317" stroke="#64748B" stroke-width="2" stroke-linecap="round" stroke-linejoin="round"/>
<path d="M7.16663 15H7.99996" stroke="#64748B" stroke-width="2" stroke-linecap="round" stroke-linejoin="round"/>
<path d="M15.85 8.00819C16.0126 7.84568 16.2055 7.71677 16.4178 7.62882C16.6301 7.54087 16.8577 7.49561 17.0875 7.49561C17.3174 7.49561 17.5449 7.54087 17.7573 7.62882C17.9696 7.71677 18.1625 7.84568 18.325 8.00819C18.4876 8.17071 18.6165 8.36363 18.7044 8.57596C18.7924 8.78829 18.8376 9.01587 18.8376 9.24569C18.8376 9.47552 18.7924 9.70309 18.7044 9.91542C18.6165 10.1278 18.4876 10.3207 18.325 10.4832L14.625 14.1665L11.3334 14.9999L12.1584 11.7082L15.85 8.00819Z" stroke="#64748B" stroke-width="2" stroke-linecap="round" stroke-linejoin="round"/>
</svg>
