<svg width="30" height="25" viewBox="0 0 30 25" fill="none" xmlns="http://www.w3.org/2000/svg">
<path d="M26.7445 -1.21247e-07C28.2764 -5.4284e-08 29.5183 1.24187 29.5183 2.7738C29.5183 4.30573 28.2764 5.54761 26.7445 5.54761L3.27388 5.54761C1.74195 5.54761 0.500076 4.30573 0.500076 2.7738C0.500076 1.24187 1.74195 -1.21414e-06 3.27388 -1.14718e-06L26.7445 -1.21247e-07Z" fill="#84CC16"/>
<path d="M19.9166 9.60205C21.4486 9.60205 22.6904 10.8439 22.6904 12.3759C22.6904 13.9078 21.4486 15.1497 19.9166 15.1497L10.1016 15.1497C8.56971 15.1497 7.32783 13.9078 7.32783 12.3759C7.32784 10.8439 8.56971 9.60205 10.1016 9.60205L19.9166 9.60205Z" fill="#84CC16"/>
<path d="M15.0093 19.2036C16.5412 19.2036 17.7831 20.4455 17.7831 21.9774C17.7831 23.5093 16.5412 24.7512 15.0093 24.7512C13.4774 24.7512 12.2355 23.5093 12.2355 21.9774C12.2355 20.4455 13.4774 19.2036 15.0093 19.2036Z" fill="#84CC16"/>
</svg>
