<svg width="24" height="24" viewBox="0 0 24 24" fill="none" xmlns="http://www.w3.org/2000/svg">
<path fill-rule="evenodd" clip-rule="evenodd" d="M10.9657 6.16563L12.2457 4.88559C13.277 3.85436 15.0857 3.13871 16.8831 2.88195C17.7689 2.75542 18.6066 2.74755 19.2903 2.84993C19.998 2.95591 20.4317 3.16309 20.6343 3.36567C20.8369 3.56824 21.0441 4.00195 21.1501 4.70966C21.2524 5.39332 21.2446 6.23098 21.118 7.11677C20.8613 8.91417 20.1456 10.723 19.1143 11.7543L12 18.8686L10.1656 17.0343C9.85323 16.7219 9.3467 16.7219 9.03428 17.0343C8.72186 17.3467 8.72186 17.8532 9.03428 18.1657L11.4343 20.5657C11.7467 20.8781 12.2532 20.8781 12.5657 20.5657L13.4411 19.6902L15.314 22.8116C15.4407 23.0228 15.6577 23.1639 15.9022 23.194C16.1467 23.2241 16.3915 23.1398 16.5657 22.9656L19.7657 19.7656C19.9437 19.5876 20.0275 19.3361 19.9919 19.0868L19.2485 13.8828L20.2457 12.8856C21.6144 11.5169 22.4187 9.32563 22.702 7.34304C22.8454 6.33884 22.8625 5.34151 22.7324 4.47269C22.6059 3.62792 22.3231 2.79166 21.7657 2.23427C21.2082 1.67689 20.372 1.39408 19.5272 1.26757C18.6584 1.13746 17.6611 1.15458 16.6569 1.29803C14.6743 1.58124 12.483 2.38555 11.1143 3.75423L10.1171 4.75143L4.91313 4.00801C4.66386 3.9724 4.41236 4.05623 4.23431 4.23428L1.03431 7.43428C0.860114 7.60847 0.775888 7.85321 0.805988 8.09771C0.836088 8.34221 0.977157 8.55921 1.1884 8.68596L4.30981 10.5588L3.43433 11.4343C3.2843 11.5843 3.20002 11.7878 3.20002 12C3.20001 12.2121 3.2843 12.4156 3.43433 12.5656L5.83433 14.9657C6.14675 15.2781 6.65329 15.2781 6.96571 14.9657C7.27812 14.6532 7.27812 14.1467 6.96571 13.8343L5.13139 12L6.16571 10.9657L10.9657 6.16563ZM16.1588 21.1097L14.6073 18.524L17.8343 15.297L18.3514 18.9171L16.1588 21.1097ZM5.47601 9.39261L8.70294 6.16565L5.08284 5.64849L2.8902 7.84113L5.47601 9.39261ZM3.76568 16.5656C4.0781 16.2532 4.0781 15.7467 3.76568 15.4343C3.45326 15.1218 2.94673 15.1218 2.63431 15.4343L1.03431 17.0343C0.721889 17.3467 0.721889 17.8532 1.03431 18.1656C1.34673 18.478 1.85326 18.478 2.16568 18.1656L3.76568 16.5656ZM6.16571 18.9657C6.47814 18.6532 6.47814 18.1467 6.16573 17.8343C5.85331 17.5219 5.34678 17.5219 5.03436 17.8343L1.83432 21.0342C1.52189 21.3467 1.52189 21.8532 1.8343 22.1656C2.14672 22.478 2.65325 22.478 2.96567 22.1656L6.16571 18.9657ZM8.56568 21.3656C8.8781 21.0532 8.8781 20.5467 8.56568 20.2343C8.25326 19.9218 7.74673 19.9218 7.43431 20.2343L5.83431 21.8343C5.52189 22.1467 5.52189 22.6532 5.83431 22.9656C6.14673 23.278 6.65326 23.278 6.96568 22.9656L8.56568 21.3656ZM15.1999 10.7981C16.3035 10.7981 17.198 9.90347 17.198 8.79995C17.198 7.69642 16.3035 6.80184 15.1999 6.80184C14.0964 6.80184 13.2018 7.69642 13.2018 8.79995C13.2018 9.90347 14.0964 10.7981 15.1999 10.7981Z" fill="black"/>
</svg>
